<?xml version="1.0" standalone="no"?>
<!DOCTYPE svg PUBLIC "-//W3C//DTD SVG 20010904//EN"
 "http://www.w3.org/TR/2001/REC-SVG-20010904/DTD/svg10.dtd">
<svg version="1.0" xmlns="http://www.w3.org/2000/svg"
 width="1669.000000pt" height="1669.000000pt" viewBox="0 0 1669.000000 1669.000000"
 preserveAspectRatio="xMidYMid meet">
<metadata>
Created by potrace 1.13, written by Peter Selinger 2001-2015
</metadata>
<g transform="translate(0.000000,1669.000000) scale(0.100000,-0.100000)"
fill="#000000" stroke="none">
<path d="M7925 16680 c-1605 -89 -3099 -607 -4394 -1523 -640 -453 -1256
-1040 -1741 -1657 -984 -1255 -1580 -2727 -1740 -4303 -58 -578 -53 -1252 15
-1837 173 -1495 777 -2956 1715 -4151 398 -507 922 -1030 1428 -1428 1209
-950 2687 -1554 4207 -1721 556 -60 1184 -66 1717 -15 1948 187 3732 1028
5114 2412 969 970 1686 2162 2080 3456 437 1440 479 2981 119 4437 -612 2476
-2344 4553 -4670 5602 -910 411 -1826 641 -2855 718 -189 14 -803 20 -995 10z
m6155 -8432 c0 -5 -2272 -8 -5050 -8 l-5050 0 0 -995 0 -995 -325 0 -325 0 2
2288 3 2287 320 0 320 0 3 -962 2 -963 4280 0 c2354 0 4280 3 4280 8 0 4 -444
450 -986 992 l-985 985 223 217 223 217 1533 -1532 c842 -843 1532 -1535 1532
-1539z m-2029 -2052 l-1025 -1025 -223 217 -224 216 808 808 808 808 440 0
440 0 -1024 -1024z"/>
</g>
</svg>
